<?xml version="1.0" encoding="iso-8859-1"?>
<!-- Uploaded to: SVG Repo, www.svgrepo.com, Generator: SVG Repo Mixer Tools -->
<!DOCTYPE svg PUBLIC "-//W3C//DTD SVG 1.1//EN" "http://www.w3.org/Graphics/SVG/1.1/DTD/svg11.dtd">
<svg fill="#000000" height="800px" width="800px" version="1.1" id="Capa_1" xmlns="http://www.w3.org/2000/svg" xmlns:xlink="http://www.w3.org/1999/xlink" 
	 viewBox="0 0 467.895 467.895" xml:space="preserve">
<g>
	<path d="M398.374,279.884c0-7.232-5.882-13.114-13.111-13.114h-3.709v-12.348c0-7.255-6.638-10.809-11.734-12.078l-8.445-15.881
		c-0.61-1.148-1.741-1.928-3.031-2.091l-61.396-7.746l-56.378-89.329c-0.733-1.161-2.01-1.865-3.383-1.865H103.259
		c-1.641,0-3.115,1.002-3.719,2.527l-33.112,83.596H33.99c-13.955,0-21.641,7.686-21.641,21.641v33.596
		C5.473,267.188,0,272.909,0,279.884v12.115c0,7.231,5.883,13.114,13.114,13.114h43.135c2.218,21.918,20.776,39.082,43.269,39.082
		c22.493,0,41.051-17.164,43.269-39.082h112.804c2.217,21.918,20.774,39.082,43.265,39.082c22.495,0,41.055-17.164,43.273-39.082
		h43.134c7.229,0,13.111-5.884,13.111-13.115V279.884z M99.518,326.196c-14.056,0-25.491-11.436-25.491-25.493
		c0-14.057,11.436-25.492,25.491-25.492c14.056,0,25.492,11.436,25.492,25.492C125.009,314.759,113.574,326.196,99.518,326.196z
		 M298.856,326.196c-14.054,0-25.488-11.436-25.488-25.493c0-14.057,11.434-25.492,25.488-25.492
		c14.059,0,25.496,11.436,25.496,25.492C324.352,314.759,312.915,326.196,298.856,326.196z"/>
	<path d="M461.895,313.484h-1.498v-1.837c0-2.934-2.107-5.372-4.89-5.894v-50.532c2.092-0.938,3.551-3.033,3.551-5.474v-2.376
		c2.11-0.93,3.586-3.036,3.586-5.49v-7.498c0-3.314-2.686-6-6-6h-2.241c-1.858-7.063-6.913-12.84-13.52-15.686v-4.595
		c0-3.314-2.686-6-6-6h-6.611c-3.314,0-6,2.686-6,6v4.593c-6.607,2.846-11.664,8.624-13.522,15.688h-2.239c-3.313,0-6,2.686-6,6
		v7.498c0,2.454,1.476,4.561,3.586,5.49v2.376c0,2.44,1.46,4.536,3.551,5.474v50.532c-2.783,0.522-4.89,2.96-4.89,5.894v1.837
		h-1.498c-3.314,0-6,2.686-6,6v18.69c0,3.314,2.686,6,6,6h60.633c3.313,0,6-2.686,6-6v-18.69
		C467.895,316.17,465.208,313.484,461.895,313.484z M431.578,286.437c-7.083,0-12.845-5.763-12.845-12.846
		c0-7.083,5.762-12.845,12.845-12.845c7.082,0,12.845,5.762,12.845,12.845C444.423,280.674,438.661,286.437,431.578,286.437z"/>
	<path d="M375.62,228.614c1.186,1.335,2.833,2.016,4.488,2.016c1.417,0,2.839-0.499,3.982-1.514c2.478-2.2,2.703-5.992,0.502-8.471
		l-40.217-45.29c-2.201-2.479-5.994-2.703-8.47-0.502c-2.478,2.2-2.703,5.992-0.502,8.471L375.62,228.614z"/>
	<path d="M396.283,220.82c0.701,0.266,1.419,0.392,2.127,0.392c2.42,0,4.702-1.477,5.611-3.874l19.927-52.536
		c1.175-3.099-0.384-6.563-3.482-7.738c-3.099-1.174-6.563,0.384-7.738,3.482l-19.927,52.536
		C391.626,216.18,393.185,219.644,396.283,220.82z"/>
	<path d="M375.371,191.609c0.793,2.581,3.168,4.24,5.733,4.24c0.583,0,1.177-0.086,1.764-0.267c3.168-0.973,4.946-4.33,3.973-7.497
		l-18.478-60.145c-0.974-3.168-4.329-4.95-7.498-3.974c-3.167,0.973-4.946,4.33-3.973,7.497L375.371,191.609z"/>
</g>
</svg>