<?xml version="1.0" encoding="iso-8859-1"?>
<!-- Uploaded to: SVG Repo, www.svgrepo.com, Generator: SVG Repo Mixer Tools -->
<!DOCTYPE svg PUBLIC "-//W3C//DTD SVG 1.1//EN" "http://www.w3.org/Graphics/SVG/1.1/DTD/svg11.dtd">
<svg fill="#000000" version="1.1" id="Capa_1" xmlns="http://www.w3.org/2000/svg" xmlns:xlink="http://www.w3.org/1999/xlink" 
	 width="800px" height="800px" viewBox="0 0 336.108 336.108"
	 xml:space="preserve">
<g>
	<polygon points="77.57,45.342 77.57,1.581 144.828,19.147 	"/>
	<rect x="176.563" width="22.845" height="36.283"/>
	<path d="M158.292,70.126h59.385c15.517,0,28.441,11.3,30.997,26.098c-0.299-0.016-0.593-0.021-0.888-0.021H128.185
		c-0.297,0-0.591,0.005-0.888,0.021C129.846,81.427,142.772,70.126,158.292,70.126z"/>
	<path d="M258.538,325.359c0,5.931-4.82,10.749-10.751,10.749H128.185c-5.93,0-10.751-4.818-10.751-10.749V117.711
		c0-4.182,2.483-8.017,6.326-9.757c1.451-0.661,2.937-0.995,4.425-0.995h119.602c1.49,0,2.981,0.333,4.409,0.99
		c0.011,0,0.011,0,0.011,0.005c3.848,1.745,6.325,5.58,6.325,9.757v207.648H258.538z"/>
</g>
</svg>