<!DOCTYPE svg PUBLIC "-//W3C//DTD SVG 1.1//EN" "http://www.w3.org/Graphics/SVG/1.1/DTD/svg11.dtd">
<!-- Uploaded to: SVG Repo, www.svgrepo.com, Transformed by: SVG Repo Mixer Tools -->
<svg fill="#fff" version="1.1" id="Layer_1" xmlns="http://www.w3.org/2000/svg" xmlns:xlink="http://www.w3.org/1999/xlink" viewBox="0 0 295.238 295.238" xml:space="preserve" width="800px" height="800px" stroke="#fff">
<g id="SVGRepo_bgCarrier" stroke-width="0"/>
<g id="SVGRepo_tracerCarrier" stroke-linecap="round" stroke-linejoin="round"/>
<g id="SVGRepo_iconCarrier"> <g> <g> <g> <rect x="71.429" y="285.714" width="9.524" height="9.524"/> <rect x="176.19" y="38.095" width="9.524" height="9.524"/> <path d="M147.619,200c-21.005,0-38.095,17.09-38.095,38.095s17.09,38.095,38.095,38.095s38.095-17.09,38.095-38.095 S168.624,200,147.619,200z M147.619,266.666c-15.757,0-28.571-12.814-28.571-28.571c0-15.757,12.814-28.571,28.571-28.571 s28.571,12.814,28.571,28.571C176.19,253.852,163.376,266.666,147.619,266.666z"/> <path d="M176.189,152.381v-28.572h20.587l9.524,23.81h31.795V15.748l-3.086-1.162C233.419,13.99,195.548,0,147.619,0 s-85.8,13.99-87.39,14.586l-3.086,1.162v131.871h31.795l9.524-23.81h20.586v28.572c0,13.586,0,21.924-16.848,47.619H71.429v76.19 h35.852c10.676,12.472,24.576,19.048,40.338,19.048c15.762,0,29.662-6.576,40.337-19.048h35.852V200h-30.771 C176.189,174.305,176.189,165.967,176.189,152.381z M147.62,9.524c38.519,0,71.047,9.652,80.952,12.919v15.652h-33.334v9.524 h33.334v9.524H66.668v-9.524h99.999v-9.524H66.668V22.443C76.572,19.176,109.101,9.524,147.62,9.524z M92.014,114.285 l-9.524,23.81H66.668V66.667h161.904v71.428h-15.824l-9.524-23.81H92.014z M214.284,233.333h-19.046v9.524h19.046v23.81h-30.862 l-1.433,1.795c-9.119,11.447-20.686,17.252-34.371,17.252s-25.252-5.804-34.371-17.252l-1.433-1.795H80.952v-23.81H100v-9.524 H80.952v-23.809h26.358l1.414-2.119c19.848-29.772,19.848-40.367,19.848-55.024v-28.572h38.093v28.572 c0,14.657,0,25.253,19.848,55.024l1.414,2.119h26.357V233.333z"/> <path d="M41.462,253.777c-11.085-11.086-17.685-25.848-17.652-39.481c0.033-13.5,6.795-28.638,17.652-39.5l-6.733-6.733 c-12.767,12.771-20.405,30.043-20.443,46.214c-0.038,16.109,7.605,33.395,20.443,46.233L41.462,253.777z"/> <path d="M9.524,233.333H0c0,34.134,27.771,61.905,61.905,61.905v-9.524C33.024,285.714,9.524,262.214,9.524,233.333z"/> <path d="M260.51,260.51c12.838-12.839,20.48-30.124,20.443-46.233c-0.038-16.166-7.676-33.443-20.443-46.214l-6.733,6.733 c10.857,10.862,17.619,26,17.652,39.5c0.034,13.633-6.566,28.395-17.652,39.481L260.51,260.51z"/> <path d="M285.714,233.333c0,28.881-23.5,52.381-52.381,52.381v9.524c34.134,0,61.905-27.771,61.905-61.905H285.714z"/> <rect x="138.095" y="133.333" width="9.524" height="9.524"/> <rect x="138.095" y="152.381" width="9.524" height="9.524"/> </g> </g> </g> </g>
</svg>